<svg width="83" height="17" viewBox="0 0 83 17" fill="none" xmlns="http://www.w3.org/2000/svg">
<path d="M21.136 16.52V4.536H23.328L23.392 6.44L22.976 6.296C23.0507 5.95467 23.232 5.64 23.52 5.352C23.8187 5.064 24.1867 4.82934 24.624 4.648C25.0613 4.46667 25.52 4.376 26 4.376C26.736 4.376 27.3867 4.568 27.952 4.952C28.528 5.32534 28.9813 5.84267 29.312 6.504C29.6533 7.15467 29.824 7.90667 29.824 8.76C29.824 9.60267 29.6587 10.3547 29.328 11.016C28.9973 11.6773 28.544 12.2 27.968 12.584C27.392 12.9573 26.736 13.144 26 13.144C25.5093 13.144 25.04 13.0533 24.592 12.872C24.1547 12.68 23.7813 12.4293 23.472 12.12C23.1627 11.8107 22.9707 11.48 22.896 11.128L23.424 10.904V16.52H21.136ZM25.488 11.192C25.904 11.192 26.272 11.0907 26.592 10.888C26.912 10.6853 27.1627 10.4027 27.344 10.04C27.5253 9.66667 27.616 9.24 27.616 8.76C27.616 8.28 27.5253 7.85867 27.344 7.496C27.1627 7.13334 26.912 6.85067 26.592 6.648C26.2827 6.44534 25.9147 6.344 25.488 6.344C25.0613 6.344 24.688 6.44534 24.368 6.648C24.048 6.84 23.7973 7.12267 23.616 7.496C23.4347 7.85867 23.344 8.28 23.344 8.76C23.344 9.24 23.4347 9.66667 23.616 10.04C23.7973 10.4027 24.048 10.6853 24.368 10.888C24.688 11.0907 25.0613 11.192 25.488 11.192Z" fill="black"/>
<path d="M34.7103 13.16C34.0063 13.16 33.3716 12.968 32.8063 12.584C32.2409 12.2 31.7929 11.6773 31.4623 11.016C31.1316 10.3547 30.9663 9.59734 30.9663 8.744C30.9663 7.89067 31.1316 7.13867 31.4623 6.488C31.8036 5.82667 32.2623 5.30934 32.8383 4.936C33.4143 4.552 34.0703 4.36 34.8063 4.36C35.2223 4.36 35.6009 4.424 35.9423 4.552C36.2943 4.66934 36.5983 4.83467 36.8543 5.048C37.1209 5.26134 37.3449 5.50667 37.5263 5.784C37.7076 6.06134 37.8356 6.36 37.9103 6.68L37.4303 6.6V4.536H39.6863V13H37.3983V10.968L37.9103 10.92C37.8249 11.2187 37.6863 11.5013 37.4943 11.768C37.3023 12.0347 37.0623 12.2747 36.7743 12.488C36.4969 12.6907 36.1823 12.856 35.8303 12.984C35.4783 13.1013 35.1049 13.16 34.7103 13.16ZM35.3343 11.192C35.7609 11.192 36.1343 11.0907 36.4543 10.888C36.7743 10.6853 37.0196 10.4027 37.1903 10.04C37.3716 9.66667 37.4623 9.23467 37.4623 8.744C37.4623 8.264 37.3716 7.84267 37.1903 7.48C37.0196 7.11734 36.7743 6.83467 36.4543 6.632C36.1343 6.41867 35.7609 6.312 35.3343 6.312C34.9183 6.312 34.5503 6.41867 34.2303 6.632C33.9209 6.83467 33.6756 7.11734 33.4943 7.48C33.3129 7.84267 33.2223 8.264 33.2223 8.744C33.2223 9.23467 33.3129 9.66667 33.4943 10.04C33.6756 10.4027 33.9209 10.6853 34.2303 10.888C34.5503 11.0907 34.9183 11.192 35.3343 11.192Z" fill="black"/>
<path d="M42.7801 13V2.392H45.0521V13H42.7801ZM41.1961 6.568V4.536H46.7801V6.568H41.1961Z" fill="black"/>
<path d="M48.261 13V4.536H50.453L50.533 7.256L50.149 6.696C50.277 6.25867 50.485 5.864 50.773 5.512C51.061 5.14934 51.397 4.86667 51.781 4.664C52.1757 4.46134 52.5863 4.36 53.013 4.36C53.1943 4.36 53.3703 4.376 53.541 4.408C53.7117 4.44 53.8557 4.47734 53.973 4.52L53.365 7.016C53.237 6.952 53.0823 6.89867 52.901 6.856C52.7197 6.80267 52.533 6.776 52.341 6.776C52.085 6.776 51.845 6.824 51.621 6.92C51.4077 7.00534 51.221 7.13334 51.061 7.304C50.901 7.464 50.773 7.656 50.677 7.88C50.5917 8.104 50.549 8.34934 50.549 8.616V13H48.261Z" fill="black"/>
<path d="M55.4686 13V4.536H57.7406V13H55.4686ZM56.5886 2.792C56.1513 2.792 55.81 2.68534 55.5646 2.472C55.3193 2.25867 55.1966 1.95467 55.1966 1.56C55.1966 1.19734 55.3193 0.904003 55.5646 0.680003C55.8206 0.445336 56.162 0.328003 56.5886 0.328003C57.026 0.328003 57.3673 0.440003 57.6126 0.664003C57.858 0.877337 57.9806 1.176 57.9806 1.56C57.9806 1.93334 57.8526 2.232 57.5966 2.456C57.3513 2.68 57.0153 2.792 56.5886 2.792Z" fill="black"/>
<path d="M62.8233 13L59.2713 4.536H61.7673L64.0233 10.856L63.4953 10.952L65.8633 4.536H68.2953L64.5673 13H62.8233Z" fill="black"/>
<path d="M69.8749 13V4.536H72.1469V13H69.8749ZM70.9949 2.792C70.5575 2.792 70.2162 2.68534 69.9709 2.472C69.7255 2.25867 69.6029 1.95467 69.6029 1.56C69.6029 1.19734 69.7255 0.904003 69.9709 0.680003C70.2269 0.445336 70.5682 0.328003 70.9949 0.328003C71.4322 0.328003 71.7735 0.440003 72.0189 0.664003C72.2642 0.877337 72.3869 1.176 72.3869 1.56C72.3869 1.93334 72.2589 2.232 72.0029 2.456C71.7575 2.68 71.4215 2.792 70.9949 2.792Z" fill="black"/>
<path d="M78.5095 13.16C77.6455 13.16 76.8722 12.9733 76.1895 12.6C75.5175 12.216 74.9842 11.6933 74.5895 11.032C74.2055 10.3707 74.0135 9.61334 74.0135 8.76C74.0135 7.90667 74.2055 7.15467 74.5895 6.504C74.9842 5.84267 75.5175 5.32 76.1895 4.936C76.8722 4.552 77.6455 4.36 78.5095 4.36C79.3628 4.36 80.1255 4.552 80.7975 4.936C81.4802 5.32 82.0135 5.84267 82.3975 6.504C82.7815 7.15467 82.9735 7.90667 82.9735 8.76C82.9735 9.61334 82.7815 10.3707 82.3975 11.032C82.0135 11.6933 81.4802 12.216 80.7975 12.6C80.1255 12.9733 79.3628 13.16 78.5095 13.16ZM78.5095 11.176C78.9255 11.176 79.2988 11.0747 79.6295 10.872C79.9602 10.6587 80.2162 10.3707 80.3975 10.008C80.5895 9.63467 80.6855 9.21867 80.6855 8.76C80.6855 8.29067 80.5895 7.87467 80.3975 7.512C80.2162 7.13867 79.9602 6.85067 79.6295 6.648C79.2988 6.43467 78.9255 6.328 78.5095 6.328C78.0828 6.328 77.7042 6.43467 77.3735 6.648C77.0428 6.86134 76.7815 7.14934 76.5895 7.512C76.3975 7.87467 76.3068 8.29067 76.3175 8.76C76.3068 9.21867 76.3975 9.63467 76.5895 10.008C76.7815 10.3707 77.0428 10.6587 77.3735 10.872C77.7042 11.0747 78.0828 11.176 78.5095 11.176Z" fill="black"/>
<path fill-rule="evenodd" clip-rule="evenodd" d="M6 13.5C7.65685 13.5 9 12.1569 9 10.5C9 8.84315 7.65685 7.5 6 7.5C4.34315 7.5 3 8.84315 3 10.5C3 12.1569 4.34315 13.5 6 13.5ZM6 16.5C9.31371 16.5 12 13.8137 12 10.5C12 7.18629 9.31371 4.5 6 4.5C2.68629 4.5 0 7.18629 0 10.5C0 13.8137 2.68629 16.5 6 16.5Z" fill="black"/>
<path d="M13.5 10.5C13.5 6.35786 10.1421 3 6 3V0C11.799 0 16.5 4.70101 16.5 10.5H15H13.5Z" fill="#7F56D9"/>
</svg>
