<svg width="512" height="512" viewBox="0 0 512 512" fill="none" xmlns="http://www.w3.org/2000/svg">
<path d="M0 256C0 114.615 114.615 0 256 0C397.385 0 512 114.615 512 256C512 397.385 397.385 512 256 512C114.615 512 0 397.385 0 256Z" fill="#D87656"/>
<path fill-rule="evenodd" clip-rule="evenodd" d="M151.164 107.383C157.296 120.775 165.48 132.941 174.793 144.576C180.871 152.169 187.816 158.906 195.083 165.472C202.273 171.967 209.97 178.458 217.143 185.228C231.867 199.126 243.757 215.112 247.1 236.256C248.544 245.394 247.661 254.791 247.673 262.985L247.681 265.265L245.458 265.79C243.97 266.144 242.368 266.199 240.979 265.4C239.536 264.569 239.036 263.228 238.835 262.507C233.39 242.922 220.781 228.178 205.236 215.265C187.357 200.411 167.723 186.459 151.905 168.341C148.084 179.061 145.171 189.82 143.25 200.832C139.373 223.059 137.666 245.066 142.047 267.161C149.575 305.122 172.263 329.832 207.763 344.018C231.772 353.612 257.192 357.176 283.002 360.929C302.095 363.705 321.012 367.413 339.752 371.887C348.038 373.865 355.239 371.56 362.576 367.113C364.275 366.083 364.698 365.388 364.776 365.105C364.789 365.058 364.998 364.405 363.508 362.73C346.232 343.306 339.242 319.807 339.592 294.775C339.926 270.879 333.074 249.474 321.781 228.709C310.79 208.5 300.757 187.546 296.056 164.42C295.783 163.08 295.456 162.287 295.187 161.854C294.945 161.464 294.841 161.491 294.932 161.519C294.901 161.514 294.705 161.49 294.254 161.646C293.692 161.842 292.928 162.255 291.935 162.961C281.097 170.682 271.157 179.111 263.206 189.579C263.032 189.808 262.874 190.071 262.584 190.536C262.331 190.94 261.972 191.509 261.516 192.042C260.483 193.249 258.906 194.314 256.583 194.209L254.248 194.106L253.866 191.803C252.793 185.312 254.923 177.24 258.663 169.034C262.452 160.722 268.097 151.832 274.642 143.532C281.19 135.229 288.701 127.429 296.263 121.329C303.772 115.273 311.568 110.696 318.673 109.16L319.589 108.961L320.45 109.343C322.138 110.092 323.075 111.398 323.486 112.778C323.838 113.961 323.785 115.178 323.765 115.806C322.675 150.872 334.01 183.107 347.498 215.28C358.439 241.378 365.296 268.329 365.007 297.126C364.875 310.268 367.082 323.125 373.255 335.268L374.546 337.69C380.671 350.427 391.255 358.623 402.638 367.05L404.344 368.317L403.642 370.325C401.322 376.965 396.022 380.72 392.294 383.801C379.109 394.696 364.286 402.944 347.092 406.458C343.021 407.29 338.508 407.654 334.078 406.299C304.164 397.149 273.337 394.037 242.246 388.041C210.888 381.994 181.319 371.112 156.711 349.389C129.498 325.368 113.96 295.003 109.492 259.032C103.035 207.054 116.372 159.302 139.728 113.918C140.905 111.63 142.554 107.613 147.594 105.861L150.072 105L151.164 107.383Z" fill="white"/>
</svg>
