<svg width="512" height="512" viewBox="0 0 512 512" fill="none" xmlns="http://www.w3.org/2000/svg">
<path fill-rule="evenodd" clip-rule="evenodd" d="M129.893 77.8559C137.242 93.9068 147.052 108.489 158.214 122.434C165.499 131.534 173.822 139.609 182.532 147.478C191.149 155.263 200.375 163.042 208.971 171.157C226.619 187.815 240.87 206.974 244.876 232.316C246.607 243.268 245.549 254.531 245.564 264.352L245.573 267.084L242.908 267.714C241.125 268.138 239.206 268.204 237.54 267.246C235.811 266.25 235.211 264.644 234.971 263.779C228.444 240.306 213.332 222.635 194.701 207.157C173.272 189.354 149.74 172.632 130.781 150.917C126.201 163.765 122.71 176.661 120.408 189.859C115.762 216.499 113.715 242.876 118.966 269.357C127.988 314.854 155.181 344.471 197.729 361.474C226.506 372.972 256.972 377.244 287.906 381.742C310.79 385.07 333.464 389.514 355.924 394.876C365.856 397.246 374.486 394.483 383.28 389.154C385.316 387.919 385.823 387.086 385.916 386.747C385.932 386.691 386.182 385.908 384.397 383.901C363.691 360.62 355.313 332.455 355.733 302.454C356.133 273.813 347.92 248.158 334.385 223.271C321.212 199.049 309.187 173.935 303.552 146.217C303.225 144.611 302.834 143.661 302.511 143.142C302.22 142.674 302.096 142.707 302.205 142.74C302.168 142.734 301.933 142.705 301.393 142.893C300.719 143.128 299.803 143.622 298.614 144.469C285.623 153.723 273.71 163.826 264.18 176.372C263.972 176.646 263.783 176.962 263.435 177.518C263.132 178.003 262.701 178.685 262.155 179.323C260.917 180.771 259.026 182.046 256.243 181.921L253.444 181.797L252.985 179.037C251.7 171.258 254.253 161.583 258.736 151.748C263.276 141.785 270.042 131.13 277.887 121.182C285.735 111.231 294.738 101.882 303.8 94.5714C312.8 87.3122 322.144 81.8268 330.66 79.986L331.758 79.7472L332.79 80.2057C334.814 81.1024 335.936 82.6683 336.429 84.3224C336.85 85.7398 336.787 87.1983 336.763 87.9521C335.457 129.979 349.042 168.615 365.208 207.176C378.322 238.455 386.54 270.757 386.193 305.272C386.035 321.023 388.68 336.433 396.079 350.986L397.626 353.89C404.967 369.155 417.652 378.979 431.296 389.078L433.34 390.597L432.5 393.004C429.718 400.962 423.367 405.463 418.898 409.156C403.095 422.213 385.329 432.099 364.721 436.311C359.842 437.308 354.433 437.744 349.123 436.12C313.271 425.153 276.323 421.423 239.059 414.237C201.475 406.989 166.036 393.947 136.541 367.911C103.926 339.121 85.303 302.727 79.9475 259.615C72.2088 197.316 88.1937 140.083 116.186 85.6883C117.597 82.9468 119.574 78.1316 125.614 76.0316L128.585 75L129.893 77.8559Z" fill="#D87656"/>
</svg>
